<svg xmlns="http://www.w3.org/2000/svg" width="55" height="19" viewBox="0 0 55 19" fill="none"><path d="M45.3208 18.0002C45.0968 18.0002 44.9608 17.8962 44.9128 17.6882L44.3848 15.8162C44.3528 15.7522 44.3128 15.7202 44.2648 15.7202H39.1768C39.1288 15.7202 39.0888 15.7522 39.0568 15.8162L38.5288 17.6882C38.4808 17.8962 38.3448 18.0002 38.1208 18.0002H34.0168C33.7288 18.0002 33.6248 17.8642 33.7048 17.5922L38.7688 1.4882C38.8328 1.2962 38.9688 1.2002 39.1768 1.2002H44.2648C44.4728 1.2002 44.6088 1.2962 44.6728 1.4882L49.7368 17.5922C49.7528 17.6242 49.7608 17.6722 49.7608 17.7362C49.7608 17.9122 49.6488 18.0002 49.4248 18.0002H45.3208ZM40.1128 12.1202C40.0968 12.2162 40.1288 12.2642 40.2088 12.2642H43.2088C43.3048 12.2642 43.3368 12.2162 43.3048 12.1202L41.7688 6.7442C41.7528 6.6962 41.7288 6.6722 41.6968 6.6722C41.6648 6.6722 41.6408 6.6962 41.6248 6.7442L40.1128 12.1202Z" fill="white"></path><path d="M50.5816 18.0002C50.4696 18.0002 50.3816 17.9682 50.3176 17.9042C50.2536 17.8402 50.2216 17.7522 50.2216 17.6402V1.56019C50.2216 1.4482 50.2536 1.3602 50.3176 1.2962C50.3816 1.2322 50.4696 1.2002 50.5816 1.2002H54.3736C54.4856 1.2002 54.5736 1.2322 54.6376 1.2962C54.7016 1.3602 54.7336 1.4482 54.7336 1.56019V17.6402C54.7336 17.7522 54.7016 17.8402 54.6376 17.9042C54.5736 17.9682 54.4856 18.0002 54.3736 18.0002H50.5816Z" fill="white"></path><path fill-rule="evenodd" clip-rule="evenodd" d="M29.5332 3.24C29.8372 3.544 30.3493 3.696 31.0693 3.696C31.7893 3.696 32.2933 3.544 32.5812 3.24C32.8853 2.936 33.0373 2.568 33.0373 2.136V1.56C33.0373 1.128 32.8853 0.760001 32.5812 0.456001C32.2933 0.152 31.7893 0 31.0693 0C30.3493 0 29.8372 0.152 29.5332 0.456001C29.2452 0.760001 29.1012 1.128 29.1012 1.56V2.136C29.1012 2.568 29.2452 2.936 29.5332 3.24ZM29.5332 15.576H25.4532V18H32.516L33.2846 15.576H32.6053V5.616H25.4532V8.04H29.5332V15.576ZM12.3666 0.240001H15.4386V7.8H15.6066C15.9426 7.048 16.3986 6.448 16.9746 6C17.5666 5.552 18.3426 5.328 19.3026 5.328C20.0066 5.328 20.6466 5.464 21.2226 5.736C21.8146 5.992 22.3186 6.392 22.7346 6.936C23.1506 7.464 23.4706 8.136 23.6946 8.952C23.9186 9.768 24.0306 10.72 24.0306 11.808C24.0306 12.896 23.9186 13.848 23.6946 14.664C23.4706 15.48 23.1506 16.16 22.7346 16.704C22.3186 17.232 21.8146 17.632 21.2226 17.904C20.6466 18.16 20.0066 18.288 19.3026 18.288C18.3426 18.288 17.5666 18.064 16.9746 17.616C16.3986 17.168 15.9426 16.568 15.6066 15.816H15.4386V18H12.3666V0.240001ZM18.0066 15.84C18.9026 15.84 19.5906 15.568 20.0706 15.024C20.5666 14.48 20.8146 13.736 20.8146 12.792V10.824C20.8146 9.88 20.5666 9.136 20.0706 8.592C19.5906 8.048 18.9026 7.776 18.0066 7.776C17.3026 7.776 16.6946 7.952 16.1826 8.304C15.6866 8.64 15.4386 9.16 15.4386 9.864V13.752C15.4386 14.456 15.6866 14.984 16.1826 15.336C16.6946 15.672 17.3026 15.84 18.0066 15.84ZM7.848 15.816H7.728C7.456 16.488 7.032 17.072 6.456 17.568C5.896 18.048 5.112 18.288 4.104 18.288C2.888 18.288 1.896 17.888 1.128 17.088C0.376 16.272 0 15.112 0 13.608V5.616H3.072V13.176C3.072 14.968 3.848 15.864 5.4 15.864C5.704 15.864 6 15.824 6.288 15.744C6.592 15.664 6.856 15.544 7.08 15.384C7.32 15.208 7.504 15 7.632 14.76C7.776 14.52 7.848 14.232 7.848 13.896V5.616H10.92V18H7.848V15.816Z" fill="white"></path></svg>