<svg width="70" height="22" viewBox="0 0 70 22" fill="none" xmlns="http://www.w3.org/2000/svg">
<path d="M14.1416 7.85861H17.7612V15.3564C17.7612 16.3388 18.0025 17.08 18.4851 17.5798C18.9677 18.0797 19.6313 18.3296 20.4759 18.3296C20.8896 18.3296 21.286 18.2434 21.6652 18.0711C22.0444 17.8987 22.3719 17.666 22.6477 17.373C22.9407 17.0628 23.1648 16.6922 23.3199 16.2613C23.4923 15.8304 23.5784 15.3564 23.5784 14.8393V7.85861H27.198V21.0443H23.5784V19.2345H23.4492C23.2079 19.6654 22.889 20.036 22.4926 20.3463C22.1478 20.622 21.7169 20.872 21.1998 21.096C20.6827 21.3201 20.0536 21.4321 19.3125 21.4321C17.6923 21.4321 16.4254 20.9668 15.5119 20.036C14.5984 19.088 14.1416 17.7005 14.1416 15.8735V7.85861Z" fill="#144E57"/>
<path d="M29.4017 14.4515C29.4017 13.3828 29.5568 12.4176 29.8671 11.5558C30.1946 10.694 30.6341 9.96143 31.1857 9.35816C31.7372 8.7549 32.375 8.28952 33.0989 7.96203C33.84 7.63454 34.6329 7.4708 35.4775 7.4708C36.2014 7.4708 36.8133 7.58283 37.3131 7.8069C37.8302 8.01374 38.2611 8.24643 38.6059 8.50497C39.0023 8.81522 39.3384 9.15995 39.6142 9.53914H39.7434V2.94629H43.3631V21.0443H39.7434V19.3638H39.6142C39.3384 19.743 39.0023 20.0877 38.6059 20.398C38.2611 20.6565 37.8302 20.8892 37.3131 21.096C36.8133 21.3201 36.2014 21.4321 35.4775 21.4321C34.6329 21.4321 33.84 21.2684 33.0989 20.9409C32.375 20.6134 31.7372 20.148 31.1857 19.5448C30.6341 18.9415 30.1946 18.209 29.8671 17.3472C29.5568 16.4853 29.4017 15.5201 29.4017 14.4515ZM33.1506 14.4515C33.1506 15.6925 33.4608 16.6491 34.0814 17.3213C34.7019 17.9935 35.4689 18.3296 36.3824 18.3296C37.3649 18.3296 38.1663 17.9935 38.7868 17.3213C39.4246 16.6491 39.7434 15.6925 39.7434 14.4515C39.7434 13.2105 39.4246 12.2538 38.7868 11.5816C38.1663 10.9094 37.3649 10.5733 36.3824 10.5733C35.4689 10.5733 34.7019 10.9094 34.0814 11.5816C33.4608 12.2538 33.1506 13.2105 33.1506 14.4515Z" fill="#144E57"/>
<path d="M46.207 7.85861H49.8266V9.79769H49.9559C50.111 9.38402 50.3437 9.02206 50.654 8.7118C50.9125 8.43603 51.2572 8.1861 51.6881 7.96203C52.1191 7.72072 52.662 7.60007 53.317 7.60007H54.8682V11.0904H52.9292C51.9467 11.0904 51.1797 11.3576 50.6281 11.8919C50.0938 12.4262 49.8266 13.1501 49.8266 14.0637V21.0443H46.207V7.85861Z" fill="#144E57"/>
<path d="M56.0387 14.4515C56.0387 13.3828 56.1939 12.4176 56.5041 11.5558C56.8316 10.694 57.2711 9.96143 57.8227 9.35816C58.3743 8.7549 59.012 8.28952 59.7359 7.96203C60.4771 7.63454 61.2699 7.4708 62.1145 7.4708C62.8384 7.4708 63.4503 7.58283 63.9502 7.8069C64.4673 8.01374 64.8982 8.24643 65.2429 8.50497C65.6393 8.81522 65.9754 9.15995 66.2512 9.53914H66.3805V7.85861H70.0001V21.0443H66.3805V19.3638H66.2512C65.9754 19.743 65.6393 20.0877 65.2429 20.398C64.8982 20.6565 64.4673 20.8892 63.9502 21.096C63.4503 21.3201 62.8384 21.4321 62.1145 21.4321C61.2699 21.4321 60.4771 21.2684 59.7359 20.9409C59.012 20.6134 58.3743 20.148 57.8227 19.5448C57.2711 18.9415 56.8316 18.209 56.5041 17.3472C56.1939 16.4853 56.0387 15.5201 56.0387 14.4515ZM59.7876 14.4515C59.7876 15.6925 60.0979 16.6491 60.7184 17.3213C61.3389 17.9935 62.1059 18.3296 63.0194 18.3296C64.0019 18.3296 64.8034 17.9935 65.4239 17.3213C66.0616 16.6491 66.3805 15.6925 66.3805 14.4515C66.3805 13.2105 66.0616 12.2538 65.4239 11.5816C64.8034 10.9094 64.0019 10.5733 63.0194 10.5733C62.1059 10.5733 61.3389 10.9094 60.7184 11.5816C60.0979 12.2538 59.7876 13.2105 59.7876 14.4515Z" fill="#144E57"/>
<path d="M3.56278 0L0.0616744 3.50111V14.638L3.56278 11.1369V0Z" fill="#144E57"/>
<path d="M4.64005 16.513L13.3053 7.84769H8.35401L4.64005 11.5617V11.5458L0.0616744 16.1242V16.14L0 16.2017L0.0616744 16.2634V21.1097L4.64005 16.5314V16.513Z" fill="#144E57"/>
<path fill-rule="evenodd" clip-rule="evenodd" d="M6 16.6544L9.44425 21.1371H14.0146L8.54732 14L6 16.6544Z" fill="#9969FF"/>
</svg>
